<?xml version="1.0" encoding="UTF-8" standalone="no"?>
<!-- Created with Inkscape (http://www.inkscape.org/) -->

<svg
   width="100mm"
   height="100mm"
   viewBox="0 0 100 100"
   version="1.1"
   id="svg5"
   xml:space="preserve"
   inkscape:version="1.2.2 (b0a8486541, 2022-12-01)"
   sodipodi:docname="sticker_qualcoder.svg"
   inkscape:export-filename="sticker_qualcoder.png"
   inkscape:export-xdpi="96"
   inkscape:export-ydpi="96"
   xmlns:inkscape="http://www.inkscape.org/namespaces/inkscape"
   xmlns:sodipodi="http://sodipodi.sourceforge.net/DTD/sodipodi-0.dtd"
   xmlns:xlink="http://www.w3.org/1999/xlink"
   xmlns="http://www.w3.org/2000/svg"
   xmlns:svg="http://www.w3.org/2000/svg"><sodipodi:namedview
     id="namedview7"
     pagecolor="#ffffff"
     bordercolor="#cccccc"
     borderopacity="1"
     inkscape:showpageshadow="0"
     inkscape:pageopacity="1"
     inkscape:pagecheckerboard="0"
     inkscape:deskcolor="#d1d1d1"
     inkscape:document-units="mm"
     showgrid="false"
     inkscape:zoom="1.0885159"
     inkscape:cx="-29.857166"
     inkscape:cy="198.43532"
     inkscape:window-width="1920"
     inkscape:window-height="1008"
     inkscape:window-x="0"
     inkscape:window-y="0"
     inkscape:window-maximized="1"
     inkscape:current-layer="layer1" /><defs
     id="defs2" /><g
     inkscape:label="Calque 1"
     inkscape:groupmode="layer"
     id="layer1"><g
       id="g882"
       transform="translate(0.6062975,6.7265528)"><g
         id="g346"
         transform="translate(3.3406645,-8.9411625)"><path
           style="fill:#f9f5f9;stroke-width:0.158205"
           d="m 78.778408,65.172239 c 0.204361,-0.217532 0.407161,-0.395513 0.450667,-0.395513 0.04351,0 -0.0881,0.177981 -0.292462,0.395513 -0.204361,0.217531 -0.407161,0.395512 -0.450667,0.395512 -0.04351,0 0.0881,-0.177981 0.292462,-0.395512 z"
           id="path392" /><path
           style="fill:#f5f5f5;stroke-width:0.158205"
           d="m 15.812852,29.595503 c 0,-0.03285 0.124587,-0.157437 0.276859,-0.276858 0.250922,-0.196786 0.256518,-0.191191 0.05973,0.05973 -0.206674,0.26353 -0.33659,0.347335 -0.33659,0.217126 z"
           id="path390" /><path
           style="fill:#d3d3d3;stroke-width:0.158205"
           d="m 15.882002,64.89538 -0.464662,-0.514166 0.514166,0.464662 c 0.282791,0.255564 0.514166,0.486939 0.514166,0.514166 0,0.122223 -0.130539,0.01462 -0.56367,-0.464662 z"
           id="path388" /><path
           style="fill:#d4b4d3;stroke-width:0.158205"
           d="m 71.164392,35.231959 c -0.196787,-0.250923 -0.191191,-0.256519 0.05973,-0.05973 0.152272,0.119421 0.276858,0.244007 0.276858,0.276858 0,0.130209 -0.129916,0.0464 -0.33659,-0.217126 z"
           id="path386" /><path
           style="fill:#d0acce;stroke-width:0.158205"
           d="m 77.008565,39.661932 c 1.419437,-0.02625 3.697587,-0.02619 5.062557,1.15e-4 1.364972,0.02631 0.203615,0.04778 -2.580792,0.04772 -2.784406,-6.3e-5 -3.9012,-0.02159 -2.481765,-0.04784 z"
           id="path384" /><path
           style="fill:#b57ab2;stroke-width:0.158205"
           d="m 78.303793,65.508019 c 0,-0.03285 0.124587,-0.157438 0.276859,-0.276859 0.250922,-0.196786 0.256518,-0.19119 0.05973,0.05973 -0.206674,0.26353 -0.336591,0.347336 -0.336591,0.217127 z"
           id="path382" /><path
           style="fill:#b173ad;stroke-width:0.158205"
           d="m 77.008565,55.324218 c 1.419437,-0.02625 3.697587,-0.02619 5.062557,1.16e-4 1.364972,0.02631 0.203615,0.04778 -2.580792,0.04772 -2.784406,-6.3e-5 -3.9012,-0.02159 -2.481765,-0.04784 z"
           id="path380" /><path
           style="fill:#ab68a7;stroke-width:0.158205"
           d="m 71.184572,59.654437 c 0,-0.03285 0.124587,-0.157437 0.276859,-0.276858 0.250922,-0.196787 0.256518,-0.191191 0.05973,0.05973 -0.206674,0.26353 -0.336591,0.347336 -0.336591,0.217127 z"
           id="path378" /><path
           style="fill:#a45da0;stroke-width:0.158205"
           d="m 60.396975,72.262491 c 0.114203,-0.0457 0.250656,-0.04008 0.303226,0.01248 0.05257,0.05257 -0.04087,0.08996 -0.207644,0.08309 -0.1843,-0.0076 -0.221787,-0.04508 -0.09558,-0.09558 z m 0.791024,0 c 0.114204,-0.0457 0.250657,-0.04008 0.303227,0.01248 0.05257,0.05257 -0.04087,0.08996 -0.207644,0.08309 -0.184301,-0.0076 -0.221788,-0.04508 -0.09558,-0.09558 z m -0.31641,-8.384861 c 0.114204,-0.0457 0.250657,-0.04008 0.303227,0.01248 0.05257,0.05257 -0.04087,0.08996 -0.207644,0.08309 -0.184301,-0.0076 -0.221787,-0.04508 -0.09558,-0.09558 z M 60.545292,30.816099 c 0.108766,-0.04389 0.286746,-0.04389 0.395512,0 0.108766,0.04389 0.01978,0.0798 -0.197756,0.0798 -0.217532,0 -0.306522,-0.03591 -0.197756,-0.0798 z m -0.158205,-8.384861 c 0.108766,-0.04389 0.286746,-0.04389 0.395512,0 0.108766,0.04389 0.01978,0.0798 -0.197756,0.0798 -0.217532,0 -0.306522,-0.03591 -0.197756,-0.0798 z"
           id="path376" /><path
           style="fill:#a0559c;stroke-width:0.158205"
           d="m 77.967203,29.220172 c -0.196786,-0.250923 -0.191191,-0.256518 0.05973,-0.05973 0.152272,0.119421 0.276858,0.244007 0.276858,0.276859 0,0.130209 -0.129916,0.0464 -0.33659,-0.217127 z"
           id="path374" /><path
           style="fill:#9e519a;stroke-width:0.158205"
           d="m 58.172218,72.107581 c 0.108766,-0.04389 0.286747,-0.04389 0.395512,0 0.108766,0.04389 0.01978,0.0798 -0.197756,0.0798 -0.217532,0 -0.306522,-0.03591 -0.197756,-0.0798 z m 4.311084,-3.840653 V 64.3215 l -0.672371,-0.08303 c -0.369804,-0.04567 -1.170716,-0.143308 -1.779805,-0.216979 -1.05788,-0.127953 -1.018944,-0.134769 0.870127,-0.152306 2.219968,-0.02061 3.671055,-0.280795 5.500332,-0.986238 2.658539,-1.025242 5.474435,-3.409232 7.156061,-6.058454 l 0.870127,-1.370794 5.033667,-0.0055 5.033668,-0.0055 -0.107651,0.355961 c -0.656637,2.171293 -2.019177,4.760648 -3.631076,6.900463 -3.63995,4.832074 -9.171482,8.141252 -15.38406,9.203345 -0.997165,0.170472 -2.055126,0.30995 -2.351023,0.30995 H 62.483302 Z M 74.053175,38.884154 c -1.417565,-2.91778 -4.864302,-5.968254 -8.050166,-7.12466 -3.244423,-1.177662 -7.536629,-1.171166 -10.49677,0.01589 l -0.886175,0.355366 -0.360195,-0.525671 c -0.892815,-1.302979 -3.971541,-4.086827 -6.03475,-5.456747 -0.370334,-0.245891 -0.360703,-0.254677 1.063512,-0.96996 1.789415,-0.898698 4.210734,-1.749236 6.208568,-2.180887 2.394069,-0.51726 7.090452,-0.600661 9.609631,-0.170652 6.748053,1.151852 12.482102,4.823022 16.348733,10.467118 1.252676,1.828523 3.018222,5.439848 3.018222,6.173604 0,0.09741 -1.860838,0.154593 -5.031032,0.154593 H 74.41172 Z"
           id="path372" /><path
           style="fill:#974d93;stroke-width:0.158205"
           d="m 52.346213,29.536582 -0.383538,-0.435064 0.435064,0.383538 c 0.239285,0.210947 0.435063,0.406726 0.435063,0.435063 0,0.124077 -0.128114,0.0231 -0.486589,-0.383537 z"
           id="path370" /><path
           style="fill:#6b6b6b;stroke-width:0.158205"
           d="m 49.851888,47.057776 c 0,-0.217532 0.03591,-0.306522 0.0798,-0.197756 0.04389,0.108766 0.04389,0.286746 0,0.395512 -0.04389,0.108766 -0.0798,0.01978 -0.0798,-0.197756 z"
           id="path368" /><path
           style="fill:#636363;stroke-width:0.158205"
           d="m 26.382918,53.752516 c 0.114204,-0.0457 0.250655,-0.04008 0.303227,0.01248 0.05257,0.05257 -0.04087,0.08996 -0.207644,0.08309 -0.184301,-0.0076 -0.221788,-0.04508 -0.09558,-0.09558 z"
           id="path366" /><path
           style="fill:#535353;stroke-width:0.158205"
           d="m 26.84949,45.52204 c 0.196792,-0.03784 0.481561,-0.0364 0.632819,0.0032 0.151259,0.0396 -0.0098,0.07056 -0.357805,0.0688 -0.348051,-0.0018 -0.471807,-0.03416 -0.275014,-0.072 z"
           id="path364" /><path
           style="fill:#434343;stroke-width:0.158205"
           d="m 45.218786,35.231959 c -0.196787,-0.250923 -0.191191,-0.256519 0.05973,-0.05973 0.152272,0.119421 0.276858,0.244007 0.276858,0.276858 0,0.130209 -0.129916,0.0464 -0.33659,-0.217126 z"
           id="path362" /><path
           style="fill:#50294e;stroke-width:0.158205"
           d="m 60.396975,72.104286 c 0.114203,-0.0457 0.250656,-0.04008 0.303226,0.01248 0.05257,0.05257 -0.04087,0.08996 -0.207644,0.08309 -0.1843,-0.0076 -0.221787,-0.04508 -0.09558,-0.09558 z"
           id="path360" /><path
           style="fill:#482546;stroke-width:0.158205"
           d="m 61.099009,72.099043 c 0.239285,-0.03625 0.630842,-0.03625 0.870127,0 0.239285,0.03625 0.04351,0.06591 -0.435063,0.06591 -0.47857,0 -0.674349,-0.02966 -0.435064,-0.06591 z"
           id="path358" /><path
           style="fill:#2d162c;stroke-width:0.158205"
           d="m 62.393511,68.257234 c 0,-2.131811 0.02239,-3.003915 0.04977,-1.93801 0.02737,1.065906 0.02737,2.810115 0,3.876021 -0.02737,1.065905 -0.04977,0.193801 -0.04977,-1.938011 z M 52.338007,29.694787 c -0.196786,-0.250923 -0.191191,-0.256519 0.05973,-0.05973 0.26353,0.206674 0.347335,0.33659 0.217126,0.33659 -0.03285,0 -0.157437,-0.124586 -0.276858,-0.276858 z"
           id="path356" /><path
           style="fill:#1d1d1d;stroke-width:0.158205"
           d="m 59.502388,47.532391 c 0,-0.217532 0.03591,-0.306522 0.0798,-0.197757 0.04389,0.108766 0.04389,0.286747 0,0.395513 -0.04389,0.108766 -0.0798,0.01977 -0.0798,-0.197756 z"
           id="path354" /><path
           style="fill:#151515;stroke-width:0.158205"
           d="m 15.959083,64.816277 -0.383538,-0.435063 0.435064,0.383538 c 0.406632,0.358475 0.507614,0.486589 0.383538,0.486589 -0.02834,0 -0.224117,-0.195779 -0.435064,-0.435064 z"
           id="path352" /><path
           style="fill:#101010;stroke-width:0.158205"
           d="m 33.492252,72.107581 c 0.108765,-0.04389 0.286746,-0.04389 0.395512,0 0.108766,0.04389 0.01978,0.0798 -0.197756,0.0798 -0.217532,0 -0.306522,-0.03591 -0.197756,-0.0798 z m 0.949229,0 c 0.108766,-0.04389 0.286746,-0.04389 0.395512,0 0.108766,0.04389 0.01978,0.0798 -0.197756,0.0798 -0.217532,0 -0.306522,-0.03591 -0.197756,-0.0798 z m -0.474615,-8.38486 c 0.108766,-0.04389 0.286747,-0.04389 0.395513,0 0.108765,0.04389 0.01978,0.0798 -0.197757,0.0798 -0.217531,0 -0.306522,-0.03591 -0.197756,-0.0798 z m 0.0099,-33.068123 c 0.114203,-0.0457 0.250655,-0.04008 0.303227,0.01248 0.05257,0.05257 -0.04087,0.08996 -0.207644,0.08309 -0.184301,-0.0076 -0.221788,-0.04508 -0.09558,-0.09558 z m -0.484502,-8.381565 c 0.108765,-0.04389 0.286746,-0.04389 0.395512,0 0.108766,0.04389 0.01978,0.0798 -0.197756,0.0798 -0.217532,0 -0.306522,-0.03591 -0.197756,-0.0798 z m 0.791024,0 c 0.108766,-0.04389 0.286746,-0.04389 0.395512,0 0.108766,0.04389 0.01978,0.0798 -0.197756,0.0798 -0.217532,0 -0.306522,-0.03591 -0.197756,-0.0798 z"
           id="path350" /><path
           style="fill:#000000;stroke-width:0.158205"
           d="M 32.187061,72.028121 C 29.008841,71.852115 25.311206,70.864413 22.378356,69.408047 19.02497,67.742853 15.141931,64.319721 13.081918,61.212678 10.571161,57.425795 9.1458568,53.323238 8.878753,49.114403 8.5798645,44.404729 9.4939193,40.004643 11.64671,35.78999 c 2.913798,-5.704524 8.027733,-10.10952 14.097313,-12.143017 3.031409,-1.015615 4.168274,-1.178238 8.262394,-1.181903 3.294373,-0.0029 3.907015,0.03796 5.378968,0.35917 3.620551,0.790077 6.985294,2.234882 9.763477,4.192391 1.825771,1.286438 4.469693,3.929106 5.805459,5.802703 1.876003,2.631357 3.41821,6.159627 4.149077,9.492294 0.455784,2.078316 0.416709,7.847478 -0.06824,10.07582 -0.690264,3.171732 -1.931932,6.027363 -3.690466,8.487461 l -0.920392,1.287581 0.821208,0.517787 c 0.451664,0.284782 1.200236,0.659599 1.663492,0.832925 0.975523,0.36499 3.252458,0.78891 4.237349,0.78891 1.253703,0 1.178753,-0.252559 1.178753,3.972049 v 3.779991 H 60.75981 c -4.828702,0 -8.842464,-1.107695 -11.695169,-3.227568 l -0.999576,-0.742794 -1.22225,0.704994 c -2.369644,1.366808 -5.345779,2.446652 -8.169353,2.964118 -1.459815,0.267535 -4.384386,0.391625 -6.486401,0.275219 z m 4.82525,-8.538509 c 1.899724,-0.340147 4.113328,-1.212139 4.113328,-1.620338 0,-0.459731 -4.414329,-4.431634 -6.232322,-5.607687 -4.086898,-2.643802 -9.97067,-3.299105 -14.422947,-1.606352 l -0.393782,0.149715 0.418315,0.833009 c 0.684975,1.364024 1.704337,2.683947 3.035433,3.930434 3.540353,3.315318 8.617943,4.792129 13.481975,3.921219 z m 11.47561,-9.866332 c 0.881399,-1.804962 1.322368,-3.624483 1.437812,-5.932684 0.448158,-8.96048 -5.649164,-16.154739 -14.337266,-16.91661 -3.682115,-0.32289 -7.157789,0.51456 -10.008853,2.411594 -2.94295,1.95817 -5.265841,5.21509 -6.283186,8.809639 -0.363251,1.283459 -0.599516,4.520824 -0.355537,4.871638 0.113747,0.163557 0.417959,0.12471 1.516611,-0.193668 2.878053,-0.834026 3.798903,-0.960761 6.904309,-0.950223 2.388318,0.0081 3.190479,0.07109 4.360033,0.342365 2.946152,0.683343 5.419519,1.909198 8.533668,4.229472 1.589339,1.184178 5.845401,4.86504 6.402567,5.537274 0.218457,0.263572 0.259954,0.248263 0.683564,-0.252173 0.248043,-0.293028 0.763868,-1.17351 1.146278,-1.956624 z"
           id="path348" /></g><text
         xml:space="preserve"
         style="font-size:5.64444px;line-height:0;font-family:'Nectarine DEMO';-inkscape-font-specification:'Nectarine DEMO';letter-spacing:0px;word-spacing:0px;writing-mode:lr-tb;stroke-width:0.264583"
         id="text448"
         transform="matrix(1.1507775,-0.30377545,0.30377545,1.1507775,-16.933153,-24.917022)"><textPath
           xlink:href="#path663-3"
           id="textPath796"><tspan
             id="tspan446"
             style="font-style:normal;font-variant:normal;font-weight:normal;font-stretch:normal;font-size:5.64444px;font-family:'DejaVu Sans';-inkscape-font-specification:'DejaVu Sans';stroke-width:0.264583">qualcoder-org.github.io</tspan></textPath></text><path
         style="fill:none;stroke:none;stroke-width:0.264583px;stroke-linecap:butt;stroke-linejoin:miter;stroke-opacity:1"
         d="m 4.405746,79.820573 c 41.261239,27.036737 66.226536,14.976957 89.975913,0"
         id="path663-3"
         sodipodi:nodetypes="cc" /></g></g></svg>
